PathFileType	3	(X/Y/Z)	D:\Vicon Setup\UG\Test1\New Session\NewSession15.trc
DataRate	CameraRate	NumFrames	NumMarkers	Units	OrigDataRate	OrigDataStartFrame	OrigNumFrames
100.0	100.0	6	27	mm	100.0	361	359	
Frame#	Time	Sternum			LShoulder			RShoulder			LASIS			RASIS			RPSIS			LPSIS			RKneeLateral			RKneeMedial			RFibulaHead			RMidShank			RAnkleLateral			RAnkleMedial			RHeel			RMT5			RMT2			RToe			LKneeLateral			LKneeMedial			LFibulaHead			LMidShank			LAnkleLateral			LAnkleMedial			LHeel			LMT5			LMT2			LToe			
		X1	Y1	Z1	X2	Y2	Z2	X3	Y3	Z3	X4	Y4	Z4	X5	Y5	Z5	X6	Y6	Z6	X7	Y7	Z7	X8	Y8	Z8	X9	Y9	Z9	X10	Y10	Z10	X11	Y11	Z11	X12	Y12	Z12	X13	Y13	Z13	X14	Y14	Z14	X15	Y15	Z15	X16	Y16	Z16	X17	Y17	Z17	X18	Y18	Z18	X19	Y19	Z19	X20	Y20	Z20	X21	Y21	Z21	X22	Y22	Z22	X23	Y23	Z23	X24	Y24	Z24	X25	Y25	Z25	X26	Y26	Z26	X27	Y27	Z27	
361	3.6	-278.1694	1358.3895	-2951.8013	-83.103935	1444.7958	-3022.8201	-456.63477	1410.5785	-3043.3811	-148.31186	988.83344	-3029.5437	-405.22485	999.54102	-3042.4529	-317.34296	1035.5797	-3211.2009	-188.03452	1029.7767	-3205.7944	-410.10147	529.12708	-3156.2268	-277.91928	516.26965	-3137.0459	-408.25766	452.4447	-3184.8167	-307.98837	307.10669	-3241.0481	-349.51303	152.96767	-3386.9026	-271.29282	162.94521	-3330.062	-288.2417	171.44856	-3457.863	-371.09094	28.431381	-3297.3455	-307.94608	50.393887	-3282.2534	-305.94989	34.997917	-3251.2175	-112.00338	558.08478	-2908.1509	-237.4908	553.96228	-2890.865	-106.7817	502.25931	-2926.8748	-194.00371	355.48242	-2951.7061	-149.95041	177.1713	-3082.51	-229.30434	187.77376	-3035.6914	-214.43333	180.50087	-3154.8911	-114.37115	60.228111	-2991.8357	-177.4426	85.060562	-2958.8306	-184.11609	62.723877	-2927.7312
362	3.61	-276.97098	1365.7318	-2928.3958	-82.792473	1451.5398	-2999.9333	-455.89172	1417.4907	-3018.6538	-147.66458	994.8288	-3004.7214	-404.32135	1005.0582	-3019.448	-315.90314	1043.3744	-3185.3875	-186.84402	1036.519	-3180.3794	-411.57184	535.83868	-3137.655	-280.32925	520.69141	-3115.5752	-410.34128	460.47272	-3168.3206	-311.70679	313.23367	-3223.5034	-352.181	160.45387	-3371.0449	-275.82092	167.72992	-3313.502	-290.59927	187.51448	-3439.032	-370.72272	28.588238	-3295.6179	-308.43988	50.526913	-3277.7092	-306.47137	34.859055	-3249.7002	-113.08955	562.53729	-2885.4446	-238.05011	559.58215	-2869.9055	-107.9614	504.23581	-2901.2495	-195.65294	355.36142	-2917.6541	-151.32883	165.79071	-3032.9219	-230.91621	182.4467	-2989.4834	-213.56285	164.48048	-3107.3982	-120.88574	56.398502	-2931.5913	-183.73247	86.190277	-2902.7996	-192.06516	67.24604	-2869.8059
363	3.62	-275.60382	1372.5974	-2905.1814	-82.396637	1457.6432	-2977.0059	-455.0188	1424.0922	-2994.3088	-147.20891	1000.3408	-2979.6545	-402.98441	1010.4092	-2996.3311	-314.39951	1050.108	-3159.7063	-185.81702	1043.1448	-3154.583	-413.05545	542.39471	-3118.1702	-283.18808	523.98395	-3092.0764	-412.34647	468.09564	-3150.7351	-316.21194	318.63647	-3204.8909	-356.00339	168.2892	-3354.7976	-280.7681	172.44664	-3296.1545	-294.15967	203.7155	-3418.0959	-370.66714	28.817137	-3293.0986	-309.20706	51.163071	-3272.5647	-307.08405	34.179501	-3247.0969	-114.17789	565.49689	-2864.0291	-238.45805	562.82385	-2850.7671	-109.11617	505.00531	-2876.7102	-197.38223	354.87579	-2884.3882	-152.71576	155.77428	-2983.9192	-232.1286	177.49785	-2943.9873	-212.47974	149.49763	-3059.8052	-128.57211	53.322388	-2872.9487	-190.25162	88.2854	-2848.6558	-199.9166	73.09816	-2814.4773
364	3.63	-274.1423	1378.9741	-2882.2991	-82.127068	1462.6719	-2954.2485	-453.83746	1429.8948	-2970.6055	-146.64543	1005.2246	-2954.3191	-401.96994	1015.9303	-2971.405	-313.02127	1055.923	-3134.3638	-184.86137	1049.3785	-3128.4111	-414.41519	548.43127	-3097.5562	-286.35345	526.46832	-3068.0015	-414.3916	474.9407	-3131.6914	-320.19443	323.84641	-3185.8811	-360.43329	176.37965	-3337.8958	-285.91568	177.44373	-3278.6743	-298.89621	219.4613	-3396.3948	-370.63647	29.599665	-3290.2019	-310.70657	52.985672	-3266.4089	-308.00174	33.10207	-3243.6375	-115.26535	566.52582	-2843.4653	-238.97798	563.10846	-2832.3604	-110.37009	504.64975	-2853.6465	-199.17548	353.43451	-2851.7378	-154.28986	146.36801	-2935.5386	-233.47826	172.91798	-2899.4177	-211.53801	135.62692	-3012.3867	-135.53317	52.305428	-2816.2236	-196.29323	91.298332	-2796.5715	-207.9541	80.112236	-2761.978
365	3.64	-272.66855	1384.9413	-2859.6165	-81.530334	1466.7957	-2931.4346	-452.50275	1434.9429	-2947.5171	-146.25719	1009.395	-2928.6819	-400.95493	1020.7883	-2946.6316	-311.86273	1061.0013	-3107.9795	-183.99155	1054.9054	-3101.9783	-415.7507	553.42261	-3075.5359	-289.1376	528.57733	-3043.9995	-416.46399	480.638	-3110.8625	-324.11945	328.6651	-3166.4912	-364.95853	184.84541	-3321.1658	-291.13919	182.83202	-3261.438	-304.06366	234.44203	-3374.6082	-371.12302	31.942841	-3286.5513	-312.86859	55.344196	-3259.6707	-309.34171	31.959972	-3239.4778	-116.31499	566.2998	-2823.4331	-239.87315	561.83911	-2813.8887	-111.64395	503.13156	-2831.7417	-200.3093	351.55322	-2820.23	-155.69867	138.88104	-2888.6848	-235.03786	168.66771	-2856.0405	-210.89851	123.21964	-2965.6721	-142.27126	52.595249	-2762.0867	-202.63565	94.404037	-2747.2598	-215.22768	86.711182	-2712.4299
366	3.65	-271.32529	1390.4071	-2836.8445	-81.149231	1469.6403	-2908.9185	-451.37854	1438.7504	-2924.8945	-145.88463	1012.8193	-2902.9629	-399.91458	1024.7299	-2921.9976	-310.73135	1065.9042	-3082.9731	-183.01752	1059.4438	-3075.5994	-417.0545	557.18365	-3051.9863	-291.28305	530.30902	-3020.0154	-418.43076	485.02658	-3088.1841	-327.43985	333.3363	-3146.7549	-369.20541	194.11284	-3304.1379	-295.44641	189.24409	-3244.427	-309.29398	248.70714	-3352.7017	-372.05768	35.670757	-3281.3091	-315.36502	58.631683	-3250.7029	-310.96805	30.859465	-3234.1182	-117.19507	565.06805	-2804.1064	-241.31284	559.36896	-2795.0837	-113.11164	500.67838	-2810.7625	-201.60011	349.42294	-2789.7622	-157.33354	132.58711	-2843.2646	-236.63545	164.77264	-2814.261	-210.84335	112.38943	-2920.3545	-147.6786	54.486374	-2710.9285	-208.03537	97.822113	-2700.6689	-221.58296	92.871597	-2665.8611
